# AST/ASF file generated using VICON BodyLanguage
# -----------------------------------------------
:version 1.10
:name VICON
:units
  mass 1.0
  length 0.45
  angle deg
:documentation
   .ast/.asf automatically generated from VICON data using
   VICON BodyBuilder and BodyLanguage model FoxedUp or BRILLIANT.MOD
:root
   order TX TY TZ RX RY RZ
   axis XYZ
   position 0 0 0  
   orientation 0 0 0 
:bonedata
  begin
     id 1 
     name lhipjoint
     direction 0.567149 -0.783011 0.255413 
     length 2.28399 
     axis 0 0 0  XYZ
  end
  begin
     id 2 
     name lfemur
     direction 0.34202 -0.939693 0  
     length 7.34031  
     axis 0 0 20  XYZ
    dof rx ry rz
    limits (-160.0 20.0)
           (-70.0 70.0)
           (-60.0 70.0)
  end
  begin
     id 3 
     name ltibia
     direction 0.34202 -0.939693 0   
     length 6.9833   
     axis 0 0 20   XYZ
    dof rx
    limits (-10.0 170.0)
  end
  begin
     id 4 
     name lfoot
     direction 0.136498 -0.375025 0.91691   
     length 2.33665   
     axis -90 7.62852e-016 20   XYZ
    dof rx rz
    limits (-45.0 90.0)
           (-70.0 20.0)
  end
  begin
     id 5 
     name ltoes
     direction 1.5367e-011 -4.21617e-011 1   
     length 1.15039   
     axis -90 7.62852e-016 20   XYZ
    dof rx
    limits (-90.0 20.0)
  end
  begin
     id 6 
     name rhipjoint
     direction -0.602854 -0.758518 0.247423   
     length 2.35775  
     axis 0 0 0  XYZ 
  end
  begin
     id 7 
     name rfemur
     direction -0.34202 -0.939693 0   
     length 7.43932   
     axis 0 0 -20   XYZ
    dof rx ry rz
    limits (-160.0 20.0)
           (-70.0 70.0)
           (-70.0 60.0)
  end
  begin
     id 8 
     name rtibia
     direction -0.34202 -0.939693 0   
     length 7.11893   
     axis 0 0 -20   XYZ
    dof rx
    limits (-10.0 170.0)
 end
 begin
     id 9 
     name rfoot
     direction -0.131771 -0.362037 0.922803   
     length 2.53019  
     axis -90 -7.62852e-016 -20   XYZ
    dof rx rz
    limits (-45.0 90.0)
           (-20.0 70.0)
  end
  begin
     id 10 
     name rtoes
     direction -1.53733e-011 -4.21932e-011 1   
     length 1.24596   
     axis -90 -7.62852e-016 -20   XYZ
    dof rx
    limits (-90.0 20.0)
  end
  begin
     id 11 
     name lowerback
     direction 0.0235427 0.999023 -0.0374125   
     length 2.21768   
     axis 0 0 0   XYZ
    dof rx ry rz
    limits (-20.0 45.0)
           (-30.0 30.0)
           (-30.0 30.0)
  end
  begin
     id 12 
     name upperback
     direction 0.0302156 0.996818 -0.073759   
     length 2.20352   
     axis 0 0 0   XYZ
    dof rx ry rz
    limits (-20.0 45.0)
           (-30.0 30.0)
           (-30.0 30.0)
  end
  begin
     id 13 
     name thorax
     direction 0.0187169 0.998235 -0.0563532   
     length 2.22103   
     axis 0 0 0   XYZ
    dof rx ry rz
    limits (-20.0 45.0)
           (-30.0 30.0)
           (-30.0 30.0)
  end
  begin
     id 14 
     name lowerneck
     direction -0.119528 0.987423 0.103481   
     length 1.72948   
     axis 0 0 0   XYZ
    dof rx ry rz
    limits (-20.0 45.0)
           (-30.0 30.0)
           (-30.0 30.0)
  end
  begin
     id 15 
     name upperneck
     direction 0.248049 0.963095 -0.104496   
     length 1.74979   
     axis 0 0 0   XYZ
    dof rx ry rz
    limits (-20.0 45.0)
           (-30.0 30.0)
           (-30.0 30.0)
  end
  begin
     id 16
     name head
     direction 0.0903589 0.994284 -0.056876  
     length 1.78268  
     axis 0 0 0   XYZ
    dof rx ry rz
    limits (-20.0 45.0)
           (-30.0 30.0)
           (-30.0 30.0)
  end
  begin
     id 17 
     name lclavicle
     direction 0.946008 0.242039 -0.215608  
     length 3.80783  
     axis 0 0 0   XYZ
    dof ry rz
    limits (-20.0 10.0)
           (0.0 20.0)
  end
  begin
     id 18 
     name lhumerus
     direction 1 -4.48991e-011 -2.25695e-027   
     length 4.83125   
     axis 180 -30 -90   XYZ
    dof rx ry rz
    limits (-60.0 90.0)
           (-90.0 90.0)
           (-90.0 90.0)
  end
  begin
     id 19
     name lradius
     direction 0.999991 0.00366712 -0.00211721   
     length 3.00391   
     axis 180 -30 -90   XYZ
    dof rx
    limits (-10.0 170.0)
  end
  begin
     id 20
     name lwrist
     direction 0.999991 0.00393016 -0.00141978   
     length 1.50195   
     axis -1.00488e-014 90 90   XYZ
    dof ry
    limits (-180.0 0.0)
 end
  begin
     id 21 
     name lhand
     direction 1 -4.49123e-011 2.72098e-026   
     length 1.2717   
     axis -1.73687e-014 90 90   XYZ
    dof rx rz
    limits (-90.0 90.0)
           (-45.0 45.0)
  end
  begin
     id 22 
     name lfingers
     direction 1 -4.48678e-011 5.4479e-026   
     length 1.02528   
     axis -3.47372e-014 90 90   XYZ
    dof rx
    limits (0.0 90.0)
  end
  begin
     id 23
     name lthumb
     direction 0.707107 -6.34851e-011 0.707107   
     length 1.4721   
     axis -90 45 -1.62303e-014   XYZ
    dof rx rz
    limits (-45.0 45.0)
           (-45.0 45.0)
  end
  begin
     id 24 
     name rclavicle
     direction -0.981723 0.189447 -0.0181673   
     length 3.74989  
     axis 0 0 0   XYZ 
    dof ry rz
    limits (-10.0 20.0)
           (-20.0 0.0)
  end
  begin
     id 25 
     name rhumerus
     direction -1 -4.48985e-011 2.38206e-027  
     length 4.61118   
     axis 180 30 90   XYZ
    dof rx ry rz
    limits (-90.0 60.0)
           (-90.0 90.0)
           (-90.0 90.0)
  end
  begin
     id 26 
     name rradius
     direction -1 -4.48977e-011 7.41019e-027   
     length 2.91491   
     axis 180 30 90   XYZ
    dof rx
    limits (-10.0 170.0)
  end
  begin
     id 27 
     name rwrist
     direction -1 -4.48549e-011 1.3624e-026   
     length 1.45745   
     axis -1.00488e-014 -90 -90   XYZ
    dof ry
    limits (-180.0 0.0)
  end
  begin
     id 28
     name rhand
     direction -1 -4.49107e-011 2.72109e-026   
     length 1.30769   
     axis -1.73687e-014 -90 -90   XYZ
    dof rx rz
    limits (-90.0 90.0)
           (-45.0 45.0)
  end
  begin
     id 29
     name rfingers
     direction -1 -4.48919e-011 5.44468e-026   
     length 1.05429   
     axis -3.47372e-014 -90 -90   XYZ
    dof rx
    limits (0.0 90.0)
  end
  begin
     id 30
     name rthumb
     direction -0.707107 -6.35315e-011 0.707107   
     length 1.51376   
     axis -90 -45 1.62303e-014   XYZ
    dof rx rz
    limits (-45.0 45.0)
           (-45.0 45.0)
  end
:hierarchy
  begin
    root lhipjoint rhipjoint lowerback
    lhipjoint lfemur
    lfemur ltibia
    ltibia lfoot
    lfoot ltoes
    rhipjoint rfemur
    rfemur rtibia
    rtibia rfoot
    rfoot rtoes
    lowerback upperback
    upperback thorax
    thorax lowerneck lclavicle rclavicle
    lowerneck upperneck
    upperneck head
    lclavicle lhumerus
    lhumerus lradius
    lradius lwrist
    lwrist lhand lthumb
    lhand lfingers
    rclavicle rhumerus
    rhumerus rradius
    rradius rwrist
    rwrist rhand rthumb
    rhand rfingers
  end

#!OML:ASF X:\für Bonn\!DataBase\2005_08_11_Bastian_Final\c3d\Bastian.ASF
:FULLY-SPECIFIED
:DEGREES
1
root 4.5987 14.7768 -20.9759 718.555 2.91369 -5.78406
lowerback 21.2949 -1.51895 3.35748
upperback 5.31267 -1.21022 0.544139
thorax -6.15632 -0.619029 -1.01274
lowerneck -17.596 -3.502 2.01746
upperneck -14.6808 -4.49877 7.14933
head -1.69956 -2.39098 1.79692
rclavicle 2.96189e-014 -1.35174e-014
rhumerus -50.1094 -1.20443 -87.5969
rradius 20.8278
rwrist 6.10644
rhand -17.5114 11.328
rfingers 7.12502
rthumb 8.74188 -18.471
lclavicle 2.96189e-014 -1.35174e-014
lhumerus -44.6199 21.6181 65.4469
lradius 25.5802
lwrist 155.038
lhand -24.1889 9.47193
lfingers 7.12502
lthumb 2.29494 39.4393
rfemur -32.1894 -4.93942 31.2988
rtibia 79.0421
rfoot -35.6402 3.96737
rtoes 24.8157
lfemur -33.3855 3.98668 -12.5936
ltibia 81.5909
lfoot -35.7004 -14.9108
ltoes 1.90513
2
root 4.60456 14.8485 -20.7402 718.756 2.87253 -5.2946
lowerback 20.5586 -1.52614 3.05199
upperback 5.02163 -1.32207 0.377353
thorax -6.09062 -0.67326 -0.998692
lowerneck -17.7317 -3.4072 2.21461
upperneck -14.4253 -4.43785 6.93459
head -1.60503 -2.35845 1.68714
rclavicle 1.94809e-014 -1.86858e-014
rhumerus -49.8684 0.706867 -88.7815
rradius 23.7586
rwrist 6.37069
rhand -17.3524 12.2818
rfingers 7.12502
rthumb 8.89528 -17.5107
lclavicle 1.94809e-014 -1.86858e-014
lhumerus -42.9774 19.2094 67.5056
lradius 27.3564
lwrist 160.422
lhand -23.4675 9.74627
lfingers 7.12502
lthumb 2.99166 39.705
rfemur -30.8785 -5.35249 30.6418
rtibia 78.1835
rfoot -35.9478 4.17735
rtoes 23.4178
lfemur -31.8744 4.03353 -13.0726
ltibia 80.4638
lfoot -35.8683 -14.9928
ltoes 1.91032
3
root 4.61085 14.9476 -20.4989 718.904 2.81311 -4.77963
lowerback 19.6698 -1.52755 2.72127
upperback 4.71272 -1.43172 0.216651
thorax -5.9588 -0.725734 -0.968044
lowerneck -17.5997 -3.32076 2.29113
upperneck -14.1884 -4.35287 6.77245
head -1.55313 -2.31347 1.6214
rclavicle -4.96962e-015 7.95139e-015
rhumerus -49.5697 2.47881 -89.6284
rradius 27.0602
rwrist 7.06937
rhand -16.9747 12.772
rfingers 7.12502
rthumb 9.25976 -17.0047
lclavicle -4.96962e-015 7.95139e-015
lhumerus -41.6183 16.7779 69.2851
lradius 29.6233
lwrist 165.762
lhand -23.2966 9.04205
lfingers 7.12502
lthumb 3.15665 38.9984
rfemur -29.2853 -5.76824 29.9123
rtibia 76.9624
rfoot -36.0712 4.43479
rtoes 22.1861
lfemur -30.1119 4.05793 -13.5601
ltibia 78.978
lfoot -35.8074 -15.084
ltoes 2.24405
4
root 4.6157 15.0692 -20.248 719.182 2.66852 -4.34987
lowerback 18.4463 -1.51083 2.45113
upperback 4.2931 -1.5085 0.0692833
thorax -5.76231 -0.763781 -0.971822
lowerneck -17.1386 -3.22132 2.34704
upperneck -13.8861 -4.23488 6.63994
head -1.52834 -2.25459 1.57421
rclavicle 1.68967e-014 9.14409e-015
rhumerus -49.2995 4.03257 -90.1683
rradius 30.4549
rwrist 8.27844
rhand -16.9062 13.2549
rfingers 7.12502
rthumb 9.32583 -16.5188
lclavicle 1.68967e-014 9.14409e-015
lhumerus -40.6273 14.5125 70.5635
lradius 32.1268
lwrist 170.716
lhand -23.0361 9.35615
lfingers 7.12502
lthumb 3.40822 39.3087
rfemur -27.6734 -6.06584 29.2732
rtibia 75.3948
rfoot -35.9378 4.6022
rtoes 20.5268
lfemur -28.3477 4.14268 -13.9536
ltibia 77.1898
lfoot -35.5698 -14.9899
ltoes 2.00182
5
root 4.61964 15.2169 -19.988 719.539 2.47729 -4.14054
lowerback 16.9697 -1.49749 2.38312
upperback 3.77348 -1.54822 -0.000183332
thorax -5.52951 -0.786851 -1.02059
lowerneck -16.596 -3.14352 2.2246
upperneck -13.1932 -4.13159 6.57915
head -1.3805 -2.1842 1.57227
rclavicle 3.97569e-016 1.98785e-015
rhumerus -49.2483 5.67944 -90.5882
rradius 33.8656
rwrist 9.59341
rhand -17.4127 14.1272
rfingers 7.12502
rthumb 8.83713 -15.6678
lclavicle 3.97569e-016 1.98785e-015
lhumerus -39.9667 12.2057 71.5951
lradius 34.7639
lwrist 175.303
lhand -23.1488 10.2301
lfingers 7.12502
lthumb 3.29944 40.1843
rfemur -25.9954 -6.30765 28.8681
rtibia 73.4562
rfoot -35.4947 4.82217
rtoes 19.2132
lfemur -26.5599 4.28527 -14.071
ltibia 75.1096
lfoot -34.9944 -14.8409
ltoes 1.57257
6
root 4.62272 15.3916 -19.717 719.865 2.21349 -4.07604
lowerback 15.2931 -1.46333 2.42383
upperback 3.23748 -1.54359 -0.028307
thorax -5.19455 -0.788919 -1.1009
lowerneck -16.0627 -3.01943 2.02085
upperneck -12.1147 -3.97233 6.60994
head -1.10465 -2.07111 1.60906
rclavicle 8.64713e-015 0
rhumerus -49.415 7.35179 -90.9414
rradius 37.4645
rwrist 10.1459
rhand -18.3768 15.4313
rfingers 7.12502
rthumb 7.90671 -14.4008
lclavicle 8.64713e-015 0
lhumerus -39.5894 9.59405 72.5108
lradius 37.6072
lwrist 180.388
lhand -23.0309 11.2115
lfingers 7.12502
lthumb 3.41327 41.1639
rfemur -24.058 -6.54318 28.5682
rtibia 71.1253
rfoot -34.737 5.09805
rtoes 17.5543
lfemur -24.5858 4.44991 -14.0207
ltibia 72.6883
lfoot -34.096 -14.5755
ltoes 0.879607
7
root 4.62378 15.5901 -19.4371 720.205 1.89872 -3.94824
lowerback 13.3976 -1.3977 2.4013
upperback 2.68618 -1.51418 -0.0821393
thorax -4.74206 -0.777093 -1.18095
lowerneck -15.4007 -2.92428 1.74564
upperneck -10.9201 -3.84354 6.6993
head -0.811456 -1.97055 1.67808
rclavicle 1.2424e-014 -2.78299e-015
rhumerus -49.714 8.9923 -91.2571
rradius 41.4253
rwrist 9.84183
rhand -18.5746 15.9131
rfingers 7.12502
rthumb 7.71572 -13.9261
lclavicle 1.2424e-014 -2.78299e-015
lhumerus -39.3606 6.95534 73.261
lradius 40.723
lwrist 185.642
lhand -22.8755 11.5645
lfingers 7.12502
lthumb 3.56337 41.5145
rfemur -21.9538 -6.84119 28.1296
rtibia 68.4386
rfoot -33.6255 5.70285
rtoes 16.0981
lfemur -22.4733 4.63411 -14.0379
ltibia 69.898
lfoot -32.737 -14.269
ltoes -0.416991
8
root 4.62201 15.8173 -19.1496 720.476 1.58144 -3.81783
lowerback 11.4649 -1.32915 2.33837
upperback 2.11593 -1.48307 -0.117747
thorax -4.2749 -0.763428 -1.2187
lowerneck -14.4384 -2.83762 1.40898
upperneck -9.86546 -3.70383 6.80295
head -0.613317 -1.87398 1.77124
rclavicle -4.27387e-015 -1.23246e-014
rhumerus -50.019 10.4949 -91.3864
rradius 45.4537
rwrist 9.57681
rhand -18.1685 15.7669
rfingers 7.12502
rthumb 8.1077 -14.0576
lclavicle -4.27387e-015 -1.23246e-014
lhumerus -39.2167 4.31686 73.9126
lradius 44.3665
lwrist 189.54
lhand -22.5599 11.6527
lfingers 7.12502
lthumb 3.8681 41.5974
rfemur -19.621 -7.30448 27.5978
rtibia 65.4183
rfoot -32.0952 6.66478
rtoes 14.6753
lfemur -20.1775 4.75615 -14.0559
ltibia 66.7837
lfoot -30.9066 -13.798
ltoes -2.97599
9
root 4.61512 16.072 -18.8556 720.703 1.26918 -3.74844
lowerback 9.51418 -1.25405 2.31912
upperback 1.55655 -1.43532 -0.151094
thorax -3.77584 -0.741254 -1.28023
lowerneck -13.5292 -2.80876 1.15391
upperneck -8.71947 -3.66801 6.83351
head -0.382567 -1.83087 1.82247
rclavicle -2.47487e-014 1.15295e-014
rhumerus -50.2892 11.7301 -91.3307
rradius 49.3285
rwrist 9.78005
rhand -17.4168 15.2461
rfingers 7.12502
rthumb 8.83319 -14.5491
lclavicle -2.47487e-014 1.15295e-014
lhumerus -38.9534 2.00004 74.2456
lradius 48.4059
lwrist 192.041
lhand -22.3512 11.0173
lfingers 7.12502
lthumb 4.06964 40.9582
rfemur -17.1723 -7.805 27.082
rtibia 62.0982
rfoot -30.0479 7.95138
rtoes 13.7708
lfemur -17.7649 4.84329 -13.9765
ltibia 63.3821
lfoot -28.6349 -13.2644
ltoes -6.88758
10
root 4.6041 16.3347 -18.5606 720.909 0.999474 -3.55778
lowerback 7.59489 -1.18511 2.08456
upperback 0.974935 -1.40944 -0.162167
thorax -3.30361 -0.727094 -1.19282
lowerneck -12.4152 -2.79235 0.62496
upperneck -7.63938 -3.60646 7.05954
head -0.199262 -1.77444 1.99122
rclavicle -8.15017e-015 3.97569e-016
rhumerus -50.6308 12.9767 -91.1116
rradius 53.118
rwrist 9.91538
rhand -16.893 15.1676
rfingers 7.12502
rthumb 9.33856 -14.6056
lclavicle -8.15017e-015 3.97569e-016
lhumerus -38.7029 0.00162025 74.3872
lradius 52.4744
lwrist 193.871
lhand -22.3152 10.35
lfingers 7.12502
lthumb 4.10436 40.2902
rfemur -14.7875 -8.30615 26.4143
rtibia 58.6318
rfoot -27.4644 9.31942
rtoes 13.2004
lfemur -15.3924 4.72351 -14.0313
ltibia 59.8766
lfoot -25.6454 -12.6889
ltoes -10.9121
